# xmcd
#
# Track frame offsets:
#	150
#	20737
#	39046
#
# Disc length: 799 seconds
#
# Revision: 6
# Processed by: cddbd v1.4PL0 Copyright (c) Steve Scherf et al.
# Submitted via: audiograbber 1.82.01
#
DISCID=18031d03
DTITLE=Okean Elzy - Holodno
DYEAR=2003
DGENRE=Rock
TTITLE0=Holodno
TTITLE1=Susy
TTITLE2=Holodno (Ambient Version)
EXTD=
EXTT0=
EXTT1=
EXTT2=
PLAYORDER=
